<svg width="201" height="43" viewBox="0 0 201 43" fill="none" xmlns="http://www.w3.org/2000/svg">
<rect y="7.64307" width="26.1905" height="26.1905" rx="4.76191" fill="#00AD33"/>
<path d="M9.65711 12.5H22.4571V16.1H13.4285V20.6714H22.2857V24.2714H13.4285V32.5H9.65711V12.5Z" fill="white"/>
<path d="M27.123 29.0714H31.923V21.7571H27.4658V18.3286H35.523V29.0714H39.6372V32.5H27.123V29.0714ZM36.4087 14.1286C36.4087 14.5095 36.3325 14.8714 36.1801 15.2143C36.0468 15.5381 35.8563 15.8238 35.6087 16.0714C35.3611 16.3 35.0658 16.4905 34.723 16.6429C34.3991 16.7762 34.0563 16.8429 33.6944 16.8429C33.3134 16.8429 32.9611 16.7762 32.6372 16.6429C32.3134 16.4905 32.0277 16.3 31.7801 16.0714C31.5325 15.8238 31.3325 15.5381 31.1801 15.2143C31.0468 14.8714 30.9801 14.5095 30.9801 14.1286C30.9801 13.7476 31.0468 13.3952 31.1801 13.0714C31.3325 12.7286 31.5325 12.4429 31.7801 12.2143C32.0277 11.9667 32.3134 11.7762 32.6372 11.6429C32.9611 11.4905 33.3134 11.4143 33.6944 11.4143C34.0563 11.4143 34.3991 11.4905 34.723 11.6429C35.0658 11.7762 35.3611 11.9667 35.6087 12.2143C35.8563 12.4429 36.0468 12.7286 36.1801 13.0714C36.3325 13.3952 36.4087 13.7476 36.4087 14.1286ZM47.9602 32.5H44.3602V18.3286H47.9602V20.4429H48.4745C48.7983 19.6429 49.3221 19.0238 50.046 18.5857C50.7698 18.1476 51.6174 17.9286 52.5888 17.9286C53.2745 17.9286 53.9126 18.0429 54.5031 18.2714C55.1126 18.481 55.646 18.8143 56.1031 19.2714C56.5602 19.7286 56.9126 20.3095 57.1602 21.0143C57.4269 21.719 57.5602 22.5571 57.5602 23.5286V32.5H53.9602V24.4429C53.9602 23.4333 53.7126 22.6429 53.2174 22.0714C52.7412 21.481 52.046 21.1857 51.1317 21.1857C50.065 21.1857 49.265 21.5476 48.7317 22.2714C48.2174 22.9762 47.9602 23.9286 47.9602 25.1286V32.5ZM72.0261 30.4429H71.5118C71.3594 30.7667 71.1689 31.081 70.9404 31.3857C70.7308 31.6714 70.4451 31.9286 70.0832 32.1571C69.7404 32.3857 69.3213 32.5667 68.8261 32.7C68.3499 32.8333 67.7689 32.9 67.0832 32.9C66.207 32.9 65.388 32.7476 64.6261 32.4429C63.8832 32.119 63.2261 31.6524 62.6547 31.0429C62.1023 30.4143 61.6642 29.6524 61.3404 28.7571C61.0356 27.8619 60.8832 26.8333 60.8832 25.6714V25.1571C60.8832 24.0143 61.0451 22.9952 61.3689 22.1C61.7118 21.2048 62.1689 20.4524 62.7404 19.8429C63.3308 19.2143 64.007 18.7381 64.7689 18.4143C65.5499 18.0905 66.3689 17.9286 67.2261 17.9286C68.3689 17.9286 69.2737 18.1476 69.9404 18.5857C70.607 19.0048 71.1308 19.6048 71.5118 20.3857H72.0261V12.5H75.6261V32.5H72.0261V30.4429ZM68.2547 29.4714C69.3785 29.4714 70.2832 29.119 70.9689 28.4143C71.6737 27.6905 72.0261 26.7476 72.0261 25.5857V25.2429C72.0261 24.081 71.6737 23.1476 70.9689 22.4429C70.2832 21.719 69.3785 21.3571 68.2547 21.3571C67.1308 21.3571 66.2166 21.7095 65.5118 22.4143C64.8261 23.1 64.4832 24.0429 64.4832 25.2429V25.5857C64.4832 26.7857 64.8261 27.7381 65.5118 28.4429C66.2166 29.1286 67.1308 29.4714 68.2547 29.4714ZM82.3491 32.5H78.7491V12.5H82.3491V20.3857H82.8634C83.2443 19.6048 83.7967 19.0048 84.5205 18.5857C85.2443 18.1476 86.1681 17.9286 87.2919 17.9286C88.13 17.9286 88.9205 18.0905 89.6634 18.4143C90.4253 18.7381 91.0824 19.2143 91.6348 19.8429C92.2062 20.4524 92.6538 21.2048 92.9777 22.1C93.3205 22.9952 93.4919 24.0143 93.4919 25.1571V25.6714C93.4919 26.8333 93.33 27.8619 93.0062 28.7571C92.6824 29.6524 92.2443 30.4143 91.6919 31.0429C91.1396 31.6524 90.4824 32.119 89.7205 32.4429C88.9777 32.7476 88.1681 32.9 87.2919 32.9C86.6443 32.9 86.0824 32.8333 85.6062 32.7C85.13 32.5667 84.711 32.3857 84.3491 32.1571C84.0062 31.9286 83.711 31.6714 83.4634 31.3857C83.2348 31.081 83.0348 30.7667 82.8634 30.4429H82.3491V32.5ZM86.1205 29.4714C87.2443 29.4714 88.1491 29.1286 88.8348 28.4429C89.5396 27.7381 89.8919 26.7857 89.8919 25.5857V25.2429C89.8919 24.0429 89.5396 23.1 88.8348 22.4143C88.1491 21.7095 87.2443 21.3571 86.1205 21.3571C84.9967 21.3571 84.0824 21.719 83.3776 22.4429C82.6919 23.1476 82.3491 24.081 82.3491 25.2429V25.5857C82.3491 26.7476 82.6919 27.6905 83.3776 28.4143C84.0824 29.119 84.9967 29.4714 86.1205 29.4714ZM100.015 26.5857C100.034 27.0048 100.129 27.3952 100.301 27.7571C100.491 28.1 100.739 28.4048 101.044 28.6714C101.367 28.919 101.729 29.119 102.129 29.2714C102.548 29.4048 102.986 29.4714 103.444 29.4714C104.339 29.4714 105.024 29.319 105.501 29.0143C105.977 28.6905 106.32 28.3095 106.529 27.8714L109.615 29.5857C109.444 29.9476 109.205 30.3286 108.901 30.7286C108.596 31.1095 108.196 31.4619 107.701 31.7857C107.224 32.1095 106.634 32.3762 105.929 32.5857C105.244 32.7952 104.434 32.9 103.501 32.9C102.434 32.9 101.463 32.7286 100.586 32.3857C99.7102 32.0429 98.9483 31.5476 98.3006 30.9C97.6721 30.2524 97.1768 29.4619 96.8149 28.5286C96.4721 27.5952 96.3006 26.5381 96.3006 25.3571V25.1857C96.3006 24.1 96.4816 23.1095 96.8435 22.2143C97.2245 21.319 97.7387 20.5571 98.3864 19.9286C99.034 19.3 99.7864 18.8143 100.644 18.4714C101.52 18.1095 102.453 17.9286 103.444 17.9286C104.663 17.9286 105.71 18.1476 106.586 18.5857C107.463 19.0048 108.186 19.5476 108.758 20.2143C109.329 20.8619 109.748 21.5857 110.015 22.3857C110.282 23.1667 110.415 23.9286 110.415 24.6714V26.5857H100.015ZM103.415 21.1857C102.501 21.1857 101.758 21.4238 101.186 21.9C100.615 22.3571 100.244 22.8905 100.072 23.5H106.758C106.644 22.8333 106.282 22.281 105.672 21.8429C105.082 21.4048 104.329 21.1857 103.415 21.1857ZM118.852 22.3286C118.852 22.7857 119.09 23.119 119.566 23.3286C120.043 23.519 120.909 23.681 122.166 23.8143C123.614 23.9667 124.795 24.4048 125.709 25.1286C126.624 25.8333 127.081 26.8238 127.081 28.1V28.2714C127.081 29.681 126.566 30.8048 125.538 31.6429C124.509 32.481 123.062 32.9 121.195 32.9C120.09 32.9 119.147 32.7571 118.366 32.4714C117.586 32.1857 116.938 31.8333 116.424 31.4143C115.909 30.9762 115.509 30.5 115.224 29.9857C114.957 29.4524 114.776 28.9381 114.681 28.4429L117.995 27.3571C118.147 27.9667 118.462 28.5 118.938 28.9571C119.433 29.4143 120.186 29.6429 121.195 29.6429C122.09 29.6429 122.7 29.5095 123.024 29.2429C123.366 28.9571 123.538 28.6524 123.538 28.3286C123.538 28.1381 123.49 27.9667 123.395 27.8143C123.319 27.6429 123.166 27.4905 122.938 27.3571C122.709 27.2048 122.395 27.081 121.995 26.9857C121.614 26.8905 121.128 26.8143 120.538 26.7571C118.938 26.6238 117.662 26.2143 116.709 25.5286C115.776 24.8238 115.309 23.7952 115.309 22.4429V22.2714C115.309 21.5667 115.462 20.9476 115.766 20.4143C116.071 19.881 116.471 19.4333 116.966 19.0714C117.462 18.6905 118.033 18.4048 118.681 18.2143C119.328 18.0238 119.995 17.9286 120.681 17.9286C121.576 17.9286 122.347 18.0429 122.995 18.2714C123.662 18.481 124.224 18.7667 124.681 19.1286C125.138 19.4714 125.509 19.8619 125.795 20.3C126.081 20.719 126.3 21.1286 126.452 21.5286L123.195 22.8429C123.024 22.3286 122.728 21.9286 122.309 21.6429C121.89 21.3381 121.347 21.1857 120.681 21.1857C120.071 21.1857 119.614 21.3 119.309 21.5286C119.005 21.7381 118.852 22.0048 118.852 22.3286ZM131.432 18.3286H135.632V12.5H139.232V18.3286H144.347V21.7571H139.232V28.2143C139.232 28.7857 139.489 29.0714 140.004 29.0714H143.832V32.5H137.832C137.185 32.5 136.651 32.2905 136.232 31.8714C135.832 31.4524 135.632 30.919 135.632 30.2714V21.7571H131.432V18.3286ZM163.212 25.5857C163.212 26.7667 163.012 27.8143 162.612 28.7286C162.212 29.6238 161.67 30.3857 160.984 31.0143C160.298 31.6238 159.508 32.0905 158.612 32.4143C157.736 32.7381 156.812 32.9 155.841 32.9C154.87 32.9 153.936 32.7381 153.041 32.4143C152.165 32.0905 151.384 31.6238 150.698 31.0143C150.012 30.3857 149.47 29.6238 149.07 28.7286C148.67 27.8143 148.47 26.7667 148.47 25.5857V25.2429C148.47 24.081 148.67 23.0524 149.07 22.1571C149.47 21.2429 150.012 20.4714 150.698 19.8429C151.384 19.2143 152.165 18.7381 153.041 18.4143C153.936 18.0905 154.87 17.9286 155.841 17.9286C156.812 17.9286 157.736 18.0905 158.612 18.4143C159.508 18.7381 160.298 19.2143 160.984 19.8429C161.67 20.4714 162.212 21.2429 162.612 22.1571C163.012 23.0524 163.212 24.081 163.212 25.2429V25.5857ZM155.841 29.4714C156.355 29.4714 156.841 29.3857 157.298 29.2143C157.755 29.0429 158.155 28.7952 158.498 28.4714C158.841 28.1476 159.108 27.7571 159.298 27.3C159.508 26.8238 159.612 26.2905 159.612 25.7V25.1286C159.612 24.5381 159.508 24.0143 159.298 23.5571C159.108 23.081 158.841 22.681 158.498 22.3571C158.155 22.0333 157.755 21.7857 157.298 21.6143C156.841 21.4429 156.355 21.3571 155.841 21.3571C155.327 21.3571 154.841 21.4429 154.384 21.6143C153.927 21.7857 153.527 22.0333 153.184 22.3571C152.841 22.681 152.565 23.081 152.355 23.5571C152.165 24.0143 152.07 24.5381 152.07 25.1286V25.7C152.07 26.2905 152.165 26.8238 152.355 27.3C152.565 27.7571 152.841 28.1476 153.184 28.4714C153.527 28.7952 153.927 29.0429 154.384 29.2143C154.841 29.3857 155.327 29.4714 155.841 29.4714ZM170.421 32.5H166.821V18.3286H170.421V20.4429H170.935C171.259 19.6429 171.783 19.0238 172.507 18.5857C173.231 18.1476 174.078 17.9286 175.05 17.9286C175.735 17.9286 176.374 18.0429 176.964 18.2714C177.574 18.481 178.107 18.8143 178.564 19.2714C179.021 19.7286 179.374 20.3095 179.621 21.0143C179.888 21.719 180.021 22.5571 180.021 23.5286V32.5H176.421V24.4429C176.421 23.4333 176.174 22.6429 175.678 22.0714C175.202 21.481 174.507 21.1857 173.593 21.1857C172.526 21.1857 171.726 21.5476 171.193 22.2714C170.678 22.9762 170.421 23.9286 170.421 25.1286V32.5ZM187.487 26.5857C187.506 27.0048 187.601 27.3952 187.773 27.7571C187.963 28.1 188.211 28.4048 188.516 28.6714C188.839 28.919 189.201 29.119 189.601 29.2714C190.02 29.4048 190.458 29.4714 190.916 29.4714C191.811 29.4714 192.497 29.319 192.973 29.0143C193.449 28.6905 193.792 28.3095 194.001 27.8714L197.087 29.5857C196.916 29.9476 196.678 30.3286 196.373 30.7286C196.068 31.1095 195.668 31.4619 195.173 31.7857C194.697 32.1095 194.106 32.3762 193.401 32.5857C192.716 32.7952 191.906 32.9 190.973 32.9C189.906 32.9 188.935 32.7286 188.058 32.3857C187.182 32.0429 186.42 31.5476 185.773 30.9C185.144 30.2524 184.649 29.4619 184.287 28.5286C183.944 27.5952 183.773 26.5381 183.773 25.3571V25.1857C183.773 24.1 183.954 23.1095 184.316 22.2143C184.697 21.319 185.211 20.5571 185.858 19.9286C186.506 19.3 187.258 18.8143 188.116 18.4714C188.992 18.1095 189.925 17.9286 190.916 17.9286C192.135 17.9286 193.182 18.1476 194.058 18.5857C194.935 19.0048 195.658 19.5476 196.23 20.2143C196.801 20.8619 197.22 21.5857 197.487 22.3857C197.754 23.1667 197.887 23.9286 197.887 24.6714V26.5857H187.487ZM190.887 21.1857C189.973 21.1857 189.23 21.4238 188.658 21.9C188.087 22.3571 187.716 22.8905 187.544 23.5H194.23C194.116 22.8333 193.754 22.281 193.144 21.8429C192.554 21.4048 191.801 21.1857 190.887 21.1857Z" fill="#00AD33"/>
</svg>
