<svg width="201" height="42" viewBox="0 0 201 42" fill="none" xmlns="http://www.w3.org/2000/svg">
<rect y="7.14307" width="26.1905" height="26.1905" rx="4.76191" fill="#00AD33"/>
<path d="M9.65735 12H22.4574V15.6H13.4288V20.1714H22.2859V23.7714H13.4288V32H9.65735V12Z" fill="white"/>
<path d="M27.1232 28.5714H31.9232V21.2571H27.4661V17.8286H35.5232V28.5714H39.6375V32H27.1232V28.5714ZM36.4089 13.6286C36.4089 14.0095 36.3327 14.3714 36.1803 14.7143C36.047 15.0381 35.8565 15.3238 35.6089 15.5714C35.3613 15.8 35.0661 15.9905 34.7232 16.1429C34.3994 16.2762 34.0565 16.3429 33.6946 16.3429C33.3137 16.3429 32.9613 16.2762 32.6375 16.1429C32.3137 15.9905 32.028 15.8 31.7803 15.5714C31.5327 15.3238 31.3327 15.0381 31.1803 14.7143C31.047 14.3714 30.9803 14.0095 30.9803 13.6286C30.9803 13.2476 31.047 12.8952 31.1803 12.5714C31.3327 12.2286 31.5327 11.9429 31.7803 11.7143C32.028 11.4667 32.3137 11.2762 32.6375 11.1429C32.9613 10.9905 33.3137 10.9143 33.6946 10.9143C34.0565 10.9143 34.3994 10.9905 34.7232 11.1429C35.0661 11.2762 35.3613 11.4667 35.6089 11.7143C35.8565 11.9429 36.047 12.2286 36.1803 12.5714C36.3327 12.8952 36.4089 13.2476 36.4089 13.6286ZM47.9605 32H44.3605V17.8286H47.9605V19.9429H48.4748C48.7986 19.1429 49.3224 18.5238 50.0462 18.0857C50.77 17.6476 51.6176 17.4286 52.5891 17.4286C53.2748 17.4286 53.9129 17.5429 54.5033 17.7714C55.1129 17.981 55.6462 18.3143 56.1033 18.7714C56.5605 19.2286 56.9129 19.8095 57.1605 20.5143C57.4271 21.219 57.5605 22.0571 57.5605 23.0286V32H53.9605V23.9429C53.9605 22.9333 53.7129 22.1429 53.2176 21.5714C52.7414 20.981 52.0462 20.6857 51.1319 20.6857C50.0652 20.6857 49.2652 21.0476 48.7319 21.7714C48.2176 22.4762 47.9605 23.4286 47.9605 24.6286V32ZM72.0263 29.9429H71.512C71.3597 30.2667 71.1692 30.581 70.9406 30.8857C70.7311 31.1714 70.4454 31.4286 70.0835 31.6571C69.7406 31.8857 69.3216 32.0667 68.8263 32.2C68.3501 32.3333 67.7692 32.4 67.0835 32.4C66.2073 32.4 65.3882 32.2476 64.6263 31.9429C63.8835 31.619 63.2263 31.1524 62.6549 30.5429C62.1025 29.9143 61.6644 29.1524 61.3406 28.2571C61.0359 27.3619 60.8835 26.3333 60.8835 25.1714V24.6571C60.8835 23.5143 61.0454 22.4952 61.3692 21.6C61.712 20.7048 62.1692 19.9524 62.7406 19.3429C63.3311 18.7143 64.0073 18.2381 64.7692 17.9143C65.5501 17.5905 66.3692 17.4286 67.2263 17.4286C68.3692 17.4286 69.2739 17.6476 69.9406 18.0857C70.6073 18.5048 71.1311 19.1048 71.512 19.8857H72.0263V12H75.6263V32H72.0263V29.9429ZM68.2549 28.9714C69.3787 28.9714 70.2835 28.619 70.9692 27.9143C71.6739 27.1905 72.0263 26.2476 72.0263 25.0857V24.7429C72.0263 23.581 71.6739 22.6476 70.9692 21.9429C70.2835 21.219 69.3787 20.8571 68.2549 20.8571C67.1311 20.8571 66.2168 21.2095 65.512 21.9143C64.8263 22.6 64.4835 23.5429 64.4835 24.7429V25.0857C64.4835 26.2857 64.8263 27.2381 65.512 27.9429C66.2168 28.6286 67.1311 28.9714 68.2549 28.9714ZM82.3493 32H78.7493V12H82.3493V19.8857H82.8636C83.2446 19.1048 83.7969 18.5048 84.5208 18.0857C85.2446 17.6476 86.1684 17.4286 87.2922 17.4286C88.1303 17.4286 88.9208 17.5905 89.6636 17.9143C90.4255 18.2381 91.0827 18.7143 91.635 19.3429C92.2065 19.9524 92.6541 20.7048 92.9779 21.6C93.3208 22.4952 93.4922 23.5143 93.4922 24.6571V25.1714C93.4922 26.3333 93.3303 27.3619 93.0065 28.2571C92.6827 29.1524 92.2446 29.9143 91.6922 30.5429C91.1398 31.1524 90.4827 31.619 89.7208 31.9429C88.9779 32.2476 88.1684 32.4 87.2922 32.4C86.6446 32.4 86.0827 32.3333 85.6065 32.2C85.1303 32.0667 84.7112 31.8857 84.3493 31.6571C84.0065 31.4286 83.7112 31.1714 83.4636 30.8857C83.235 30.581 83.035 30.2667 82.8636 29.9429H82.3493V32ZM86.1208 28.9714C87.2446 28.9714 88.1493 28.6286 88.835 27.9429C89.5398 27.2381 89.8922 26.2857 89.8922 25.0857V24.7429C89.8922 23.5429 89.5398 22.6 88.835 21.9143C88.1493 21.2095 87.2446 20.8571 86.1208 20.8571C84.9969 20.8571 84.0827 21.219 83.3779 21.9429C82.6922 22.6476 82.3493 23.581 82.3493 24.7429V25.0857C82.3493 26.2476 82.6922 27.1905 83.3779 27.9143C84.0827 28.619 84.9969 28.9714 86.1208 28.9714ZM100.015 26.0857C100.034 26.5048 100.129 26.8952 100.301 27.2571C100.491 27.6 100.739 27.9048 101.044 28.1714C101.368 28.419 101.729 28.619 102.129 28.7714C102.549 28.9048 102.987 28.9714 103.444 28.9714C104.339 28.9714 105.025 28.819 105.501 28.5143C105.977 28.1905 106.32 27.8095 106.529 27.3714L109.615 29.0857C109.444 29.4476 109.206 29.8286 108.901 30.2286C108.596 30.6095 108.196 30.9619 107.701 31.2857C107.225 31.6095 106.634 31.8762 105.929 32.0857C105.244 32.2952 104.434 32.4 103.501 32.4C102.434 32.4 101.463 32.2286 100.587 31.8857C99.7104 31.5429 98.9485 31.0476 98.3009 30.4C97.6723 29.7524 97.1771 28.9619 96.8152 28.0286C96.4723 27.0952 96.3009 26.0381 96.3009 24.8571V24.6857C96.3009 23.6 96.4818 22.6095 96.8437 21.7143C97.2247 20.819 97.739 20.0571 98.3866 19.4286C99.0342 18.8 99.7866 18.3143 100.644 17.9714C101.52 17.6095 102.453 17.4286 103.444 17.4286C104.663 17.4286 105.71 17.6476 106.587 18.0857C107.463 18.5048 108.187 19.0476 108.758 19.7143C109.329 20.3619 109.749 21.0857 110.015 21.8857C110.282 22.6667 110.415 23.4286 110.415 24.1714V26.0857H100.015ZM103.415 20.6857C102.501 20.6857 101.758 20.9238 101.187 21.4C100.615 21.8571 100.244 22.3905 100.072 23H106.758C106.644 22.3333 106.282 21.781 105.672 21.3429C105.082 20.9048 104.329 20.6857 103.415 20.6857ZM118.852 21.8286C118.852 22.2857 119.091 22.619 119.567 22.8286C120.043 23.019 120.91 23.181 122.167 23.3143C123.614 23.4667 124.795 23.9048 125.71 24.6286C126.624 25.3333 127.081 26.3238 127.081 27.6V27.7714C127.081 29.181 126.567 30.3048 125.538 31.1429C124.51 31.981 123.062 32.4 121.195 32.4C120.091 32.4 119.148 32.2571 118.367 31.9714C117.586 31.6857 116.938 31.3333 116.424 30.9143C115.91 30.4762 115.51 30 115.224 29.4857C114.957 28.9524 114.776 28.4381 114.681 27.9429L117.995 26.8571C118.148 27.4667 118.462 28 118.938 28.4571C119.433 28.9143 120.186 29.1429 121.195 29.1429C122.091 29.1429 122.7 29.0095 123.024 28.7429C123.367 28.4571 123.538 28.1524 123.538 27.8286C123.538 27.6381 123.491 27.4667 123.395 27.3143C123.319 27.1429 123.167 26.9905 122.938 26.8571C122.71 26.7048 122.395 26.581 121.995 26.4857C121.614 26.3905 121.129 26.3143 120.538 26.2571C118.938 26.1238 117.662 25.7143 116.71 25.0286C115.776 24.3238 115.31 23.2952 115.31 21.9429V21.7714C115.31 21.0667 115.462 20.4476 115.767 19.9143C116.071 19.381 116.471 18.9333 116.967 18.5714C117.462 18.1905 118.033 17.9048 118.681 17.7143C119.329 17.5238 119.995 17.4286 120.681 17.4286C121.576 17.4286 122.348 17.5429 122.995 17.7714C123.662 17.981 124.224 18.2667 124.681 18.6286C125.138 18.9714 125.51 19.3619 125.795 19.8C126.081 20.219 126.3 20.6286 126.452 21.0286L123.195 22.3429C123.024 21.8286 122.729 21.4286 122.31 21.1429C121.891 20.8381 121.348 20.6857 120.681 20.6857C120.071 20.6857 119.614 20.8 119.31 21.0286C119.005 21.2381 118.852 21.5048 118.852 21.8286ZM131.433 17.8286H135.633V12H139.233V17.8286H144.347V21.2571H139.233V27.7143C139.233 28.2857 139.49 28.5714 140.004 28.5714H143.833V32H137.833C137.185 32 136.652 31.7905 136.233 31.3714C135.833 30.9524 135.633 30.419 135.633 29.7714V21.2571H131.433V17.8286ZM148.47 19.7714C148.47 17.181 149.117 15.1714 150.413 13.7429C151.727 12.3143 153.537 11.6 155.841 11.6C158.146 11.6 159.946 12.3143 161.241 13.7429C162.556 15.1714 163.213 17.181 163.213 19.7714V24.2286C163.213 26.8952 162.556 28.9238 161.241 30.3143C159.946 31.7048 158.146 32.4 155.841 32.4C153.537 32.4 151.727 31.7048 150.413 30.3143C149.117 28.9238 148.47 26.8952 148.47 24.2286V19.7714ZM155.841 28.9714C156.527 28.9714 157.098 28.8667 157.556 28.6571C158.013 28.4286 158.384 28.1143 158.67 27.7143C158.956 27.3143 159.156 26.8381 159.27 26.2857C159.384 25.7333 159.441 25.1238 159.441 24.4571V19.5429C159.441 18.9143 159.375 18.3238 159.241 17.7714C159.108 17.219 158.898 16.7429 158.613 16.3429C158.327 15.9429 157.956 15.6286 157.498 15.4C157.041 15.1524 156.489 15.0286 155.841 15.0286C155.194 15.0286 154.641 15.1524 154.184 15.4C153.727 15.6286 153.356 15.9429 153.07 16.3429C152.784 16.7429 152.575 17.219 152.441 17.7714C152.308 18.3238 152.241 18.9143 152.241 19.5429V24.4571C152.241 25.1238 152.298 25.7333 152.413 26.2857C152.527 26.8381 152.727 27.3143 153.013 27.7143C153.298 28.1143 153.67 28.4286 154.127 28.6571C154.584 28.8667 155.156 28.9714 155.841 28.9714ZM170.421 32H166.821V17.8286H170.421V19.9429H170.936C171.26 19.1429 171.783 18.5238 172.507 18.0857C173.231 17.6476 174.079 17.4286 175.05 17.4286C175.736 17.4286 176.374 17.5429 176.964 17.7714C177.574 17.981 178.107 18.3143 178.564 18.7714C179.021 19.2286 179.374 19.8095 179.621 20.5143C179.888 21.219 180.021 22.0571 180.021 23.0286V32H176.421V23.9429C176.421 22.9333 176.174 22.1429 175.679 21.5714C175.202 20.981 174.507 20.6857 173.593 20.6857C172.526 20.6857 171.726 21.0476 171.193 21.7714C170.679 22.4762 170.421 23.4286 170.421 24.6286V32ZM187.487 26.0857C187.506 26.5048 187.602 26.8952 187.773 27.2571C187.963 27.6 188.211 27.9048 188.516 28.1714C188.84 28.419 189.202 28.619 189.602 28.7714C190.021 28.9048 190.459 28.9714 190.916 28.9714C191.811 28.9714 192.497 28.819 192.973 28.5143C193.449 28.1905 193.792 27.8095 194.002 27.3714L197.087 29.0857C196.916 29.4476 196.678 29.8286 196.373 30.2286C196.068 30.6095 195.668 30.9619 195.173 31.2857C194.697 31.6095 194.106 31.8762 193.402 32.0857C192.716 32.2952 191.906 32.4 190.973 32.4C189.906 32.4 188.935 32.2286 188.059 31.8857C187.183 31.5429 186.421 31.0476 185.773 30.4C185.144 29.7524 184.649 28.9619 184.287 28.0286C183.944 27.0952 183.773 26.0381 183.773 24.8571V24.6857C183.773 23.6 183.954 22.6095 184.316 21.7143C184.697 20.819 185.211 20.0571 185.859 19.4286C186.506 18.8 187.259 18.3143 188.116 17.9714C188.992 17.6095 189.925 17.4286 190.916 17.4286C192.135 17.4286 193.183 17.6476 194.059 18.0857C194.935 18.5048 195.659 19.0476 196.23 19.7143C196.802 20.3619 197.221 21.0857 197.487 21.8857C197.754 22.6667 197.887 23.4286 197.887 24.1714V26.0857H187.487ZM190.887 20.6857C189.973 20.6857 189.23 20.9238 188.659 21.4C188.087 21.8571 187.716 22.3905 187.544 23H194.23C194.116 22.3333 193.754 21.781 193.144 21.3429C192.554 20.9048 191.802 20.6857 190.887 20.6857Z" fill="#00AD33"/>
</svg>
